<?xml version="1.0" standalone="no"?><!DOCTYPE svg PUBLIC "-//W3C//DTD SVG 1.1//EN" "http://www.w3.org/Graphics/SVG/1.1/DTD/svg11.dtd"><svg t="1535368624582" class="icon" style="" viewBox="0 0 1024 1024" version="1.1" xmlns="http://www.w3.org/2000/svg" p-id="7897" data-spm-anchor-id="a313x.7781069.0.i4" xmlns:xlink="http://www.w3.org/1999/xlink" width="128" height="128"><defs><style type="text/css"></style></defs><path d="M783.176411 915.309714a62.72 62.72 0 0 1-54.052571 31.085715H252.305554a62.72 62.72 0 0 1-54.052571-31.085715L106.202697 756.662857H265.910126c9.508571 0 17.261714 7.753143 17.261714 17.298286a94.976 94.976 0 0 0 94.866286 94.866286h229.193143a94.976 94.976 0 0 0 94.866285-94.866286c0-9.545143 7.753143-17.298286 17.298286-17.298286h155.794286l-92.013715 158.610286z m193.060572-216.539428a141.458286 141.458286 0 0 0-2.011429-25.344l-102.034285-586.971429A38.656 38.656 0 0 0 827.281554 54.857143c-21.065143 3.657143-35.218286 23.771429-31.561143 44.836571l100.717715 579.401143H719.39584a94.976 94.976 0 0 0-94.866286 94.866286c0 9.508571-7.753143 17.261714-17.298285 17.261714h-229.193143a17.298286 17.298286 0 0 1-17.261715-17.261714A94.976 94.976 0 0 0 265.910126 679.131429H84.881554L185.63584 99.730286a38.765714 38.765714 0 0 0-31.414857-44.836572c-21.577143-4.022857-41.362286 10.605714-44.982857 31.561143l-102.034286 586.971429a143.213714 143.213714 0 0 0-2.048 25.344 38.4 38.4 0 0 0 8.704 48.749714c2.998857 8.228571 6.582857 15.981714 10.678857 23.04l106.605714 183.698286A140.507429 140.507429 0 0 0 252.305554 1024h476.818286c49.737143 0 96.146286-26.733714 121.124571-69.741714l106.605715-183.661715c4.096-7.094857 7.68-14.848 10.642285-23.04a38.4 38.4 0 0 0 8.740572-48.786285z m-485.522286-156.452572l164.571429-164.571428c7.314286-7.314286 11.337143-17.042286 11.337143-27.428572 0-10.349714-4.022857-20.077714-11.337143-27.428571-14.665143-14.628571-40.228571-14.628571-54.857143 0l-70.948572 70.948571-0.073142-264.411428C526.591269 84.736 495.871269 0 399.578697 0a38.838857 38.838857 0 0 0 0 77.568c44.178286 0 51.273143 43.264 52.333714 55.222857v261.046857l-70.948571-70.948571c-14.628571-14.628571-40.228571-14.628571-54.857143 0-7.314286 7.350857-11.337143 17.078857-11.337143 27.428571 0 10.386286 4.022857 20.114286 11.337143 27.428572l164.571429 164.571428z" p-id="7898" fill="#666666"></path></svg>
