<?xml version="1.0" standalone="no"?><!DOCTYPE svg PUBLIC "-//W3C//DTD SVG 1.1//EN" "http://www.w3.org/Graphics/SVG/1.1/DTD/svg11.dtd"><svg t="1535381337755" class="icon" style="" viewBox="0 0 4018 1024" version="1.1" xmlns="http://www.w3.org/2000/svg" p-id="1883" data-spm-anchor-id="a313x.7781069.0.i2" xmlns:xlink="http://www.w3.org/1999/xlink" width="188.34375" height="48"><defs><style type="text/css"></style></defs><path d="M318.74042 790.381154c-31.73469 0-53.691349 2.424015-65.869976 7.318886l-20.129864-16.464566 173.826474-5.492092 1.826794-320.204197-3.665299-84.173046 58.55109 16.464566c3.665298 0 4.262519 2.459146 1.826794 7.318886-6.112734 3.665298-9.778032 9.778032-10.984185 18.303071l-1.826794 137.232043 106.129705-1.826794 27.44875-31.102339L620.641546 552.511499c2.435725 2.459146 1.826794 3.665298-1.826794 3.665298l-166.507587 5.492092-1.826794 214.074493 128.086362-1.826794 32.940843-29.275545 38.421225 31.102339c1.206152 3.665298 0 5.492092-3.665298 5.492092l-327.523083 9.14568zM688.338316 623.873566c-2.459146 1.229573-4.28594 1.229573-5.492093 0-1.229573-1.206152-1.229573-3.032946 0-5.492092 73.188862-62.216387 129.280805-145.14815 168.334382-248.842129l36.594431 23.783452c3.665298 1.229573 3.665298 4.28594 0 9.14568-17.096918 30.505118-37.824004 61.619166-62.216388 93.318726l-1.826794 261.653108c-2.459146 15.843925-10.984184 32.308491-25.621956 49.405409-8.548459 6.089313-13.43162 6.089313-14.637773 0l3.665299-122.594271 3.665298-150.043021c-26.839819 26.86324-61.010235 56.724295-102.464406 89.665138z m252.507427-155.523403c-15.867345 0-32.940843 1.229573-51.232203 3.665298h-1.826794l-12.810978-12.810978 76.854159-1.826794 7.318887-32.940843 9.14568-54.897501 45.740111 18.30307c3.665298 1.229573 3.665298 3.665298 0 7.318886-7.318886 4.894871-11.604826 14.040551-12.810979 27.448751l-7.318886 34.767637h53.058997l25.621957-25.621957 29.275544 27.448751c1.206152 3.665298 0 5.492092-3.665298 5.492092l-107.956498 1.826794-12.810978 65.869975 100.637612-3.665298 25.621956-27.44875 32.940843 29.275544c2.435725 3.665298 2.435725 5.492092 0 5.492092l-162.842289 5.492093-5.492092 25.621956-7.318886 29.275545 80.507747-1.826794 18.303071-20.129865 38.421225 29.275545c2.435725 2.459146 2.435725 4.894871 0 7.318886l-16.464567 12.810978c-21.956658 29.275545-53.691349 61.010235-95.14552 95.145521 25.621957 14.637772 44.510538 27.448751 56.724295 38.421224 6.089313 10.984184 3.032946 26.816399-9.14568 47.578615-4.883161 6.089313-8.548459 8.525039-10.984184 7.318887-2.459146-1.229573-6.112734-5.492092-10.984184-12.810979-31.73469-42.683744-67.696769-79.875396-107.956499-111.610086-1.229573-2.424015 0-4.250809 3.665298-5.492092a927.835691 927.835691 0 0 1 69.535274 31.102338c26.816399-40.259729 48.175836-77.439671 64.043181-111.610086l-84.173045 3.665298c-13.43162 13.43162-25.013025 21.359437-34.767637 23.783453-6.112734 1.229573-9.14568 0-9.14568-3.665299l18.30307-73.188861 3.665298-9.14568h-25.621956c-3.665298 0-9.14568 0.632352-16.464567 1.826794-17.096918 0-28.069392 1.229573-32.940842 3.665298l-14.637773-14.637772 91.491932-1.826794 12.810979-64.043182h-9.169101zM1242.746869 638.511339c-13.43162 25.621957-27.448751 34.767637-42.086522 27.44875l-1.826794-192.117834c0-2.424015 0.597221-4.250809 1.826794-5.492092 1.206152 0 2.435725 0.632352 3.665298 1.826794l34.767636 20.129864 113.448591-3.665298v-38.421225l-1.826794-80.507747 54.897501 14.637772c3.665298 0 4.262519 1.826794 1.826794 5.492092-3.665298 3.665298-6.721665 9.778032-9.14568 18.303071v80.507747l106.129705-1.826794 21.956658-27.44875 43.913317 25.621956c2.435725 1.229573 2.435725 3.068077 0 5.492093l-10.984184 16.464566 1.826794 106.129704 3.665298 10.984185c2.435725 4.894871 0.597221 7.318886-5.492092 7.318886-30.505118-3.665298-84.173046-4.250809-161.015496-1.826794V762.967534c-6.112734 23.162811-19.520933 41.454171-40.259729 54.897501-3.665298 1.206152-6.721665-1.229573-9.14568-7.318886l3.665298-89.653428v-93.318726c-18.303071 0-42.707165 0.632352-73.188861 1.826794h-36.594431v9.11055z m-1.826794-137.232043v115.275384l111.610087-1.826794v-115.275384l-111.610087 1.826794z m265.306696-5.492093l-107.956498 1.826794v115.275385l109.783292-1.826794-1.826794-115.275385zM1703.836697 821.483492l-5.492092-1.826794c31.71127-20.750506 45.740111-41.489302 42.086523-62.216387H1733.112242c-21.956658-1.206152-33.561484-10.984184-34.767637-29.275545 1.206152-18.303071 12.810978-28.045972 34.767637-29.275544 23.162811 0 34.767637 15.867345 34.767637 47.578615-7.318886 32.929133-28.678324 57.918737-64.043182 75.015655zM2278.363406 658.641203c3.665298-1.206152 4.85974 0 3.665298 3.665298l-65.869976 89.653428c-3.665298 3.665298-8.548459 9.742901-14.637772 18.303071-9.778032 10.984184-15.867345 18.303071-18.30307 21.956658-1.229573 2.424015-2.459146 3.665298-3.665299 3.665298l-1.826794-1.826794-31.102338-31.102338-3.653588-1.850215 1.826794-1.826794c6.089313-2.424015 15.843925-8.525039 29.275544-18.30307 6.089313-3.665298 10.351833-6.686534 12.810979-9.14568l-1.826794-204.928813-29.275545 1.826794c-15.867345-1.206152-28.069392 0-36.594431 3.665298l-16.464566-14.637772 80.507748-1.826794 16.464566-23.783452 38.421225 21.956658c3.665298 0 3.665298 1.229573 0 3.665298l-9.14568 16.464567-12.810979 173.826473 62.204678-49.417119z m-118.928973-278.117674c36.594431 15.867345 58.551089 28.678324 65.869975 38.421225 2.435725 13.43162-4.883161 26.242598-21.956658 38.421225-7.318886 3.665298-13.43162 1.826794-18.30307-5.492093-4.883161-31.69956-15.270124-54.26515-31.102339-67.696769 0-2.424015 1.838504-3.653588 5.492092-3.653588z m166.507588 69.523563c-6.112734 0-13.43162 0.632352-21.956659 1.826794-12.202047 0-20.750506 0.632352-25.621956 1.826794l-16.464567-12.810978 93.318726-1.826794-1.826794-67.696769 49.405409 12.810978c3.665298 1.229573 4.262519 3.665298 1.826794 7.318886-3.665298 3.665298-6.112734 9.778032-7.318886 18.303071v29.275544l54.897502-1.826794 23.783452-21.956658 25.621957 25.621957c2.435725 2.459146 1.826794 3.665298-1.826794 3.665298l-102.464406 3.665298-1.826794 42.086523 42.086522-1.826794 21.956659-21.956659 25.621957 25.621957c2.435725 2.459146 1.826794 3.665298-1.826794 3.665298l-87.826634 3.665298v45.740111l87.826634-1.826794 21.956658-25.621956 32.940843 27.44875 1.826794 3.665299c-1.229573 1.229573-2.459146 1.826794-3.665298 1.826794l-225.058677 3.665298c-3.665298 0-8.548459 0.632352-14.637772 1.826794-14.637772 0-25.621957 1.229573-32.940843 3.665298l-14.637773-14.637772h106.129705v-45.740111h-9.14568c-6.112734 0-13.43162 0.632352-21.956659 1.826794-12.202047 0-20.750506 0.632352-25.621957 1.826794l-16.464566-10.984185 73.188862-1.826794v-40.259729h-29.298965z m3.653588 140.885631l100.637612-3.665298 16.464566-20.129864 40.259729 23.783452c3.665298 1.229573 4.262519 3.068077 1.826794 5.492092l-10.984184 16.464567 3.665298 120.767476c3.665298 32.940843-12.810978 60.975104-49.405409 84.173046-4.883161 1.206152-7.318886 0-7.318886-3.665298-1.229573-14.637772-5.492092-23.783452-12.810979-27.448751-1.229573-1.229573-1.826794-2.459146-1.826794-3.665298 0-2.459146 0.597221-3.068077 1.826794-1.826794 15.843925 1.206152 23.162811-5.492092 21.956659-20.129864l-3.665298-164.680794-98.810819 3.665298v40.259729l82.334542-3.665298c3.665298 0 5.492092 1.229573 5.492092 3.665298 0 2.459146-1.229573 4.28594-3.665298 5.492092l-84.173046 3.665299-1.826794 45.740111 85.99984-3.665299c2.435725 0 4.262519 1.229573 5.492092 3.665299 0 2.459146-1.229573 4.28594-3.665298 5.492092l-87.826634 3.665298v49.405409c0 19.497513-7.951238 38.421225-23.783452 56.724295-3.665298 2.424015-6.112734 3.665298-7.318886 3.665299-2.459146-1.229573-4.28594-3.665298-5.492093-7.318887l1.826794-73.188861 1.826794-98.810818-1.826794-62.216388 34.791058 18.29136zM2735.799645 373.204643l29.275545 31.102339c2.435725 3.665298 1.206152 6.112734-3.665298 7.318886-24.415804 3.665298-46.372463 7.318886-65.869975 10.984184l25.621956 9.14568c2.435725 1.229573 2.435725 3.068077 0 5.492092l-7.318886 12.810979-1.826794 53.058997h12.810978l21.956659-21.956659 23.783452 25.621957c2.435725 3.665298 1.826794 5.492092-1.826794 5.492092l-56.724295 1.826794v43.913317c30.481697 14.637772 47.578615 25.621957 51.232203 32.940843 0 10.984184-5.492092 20.750506-16.464566 29.275544-8.548459 3.665298-13.43162 1.826794-14.637772-5.492092-3.665298-19.497513-10.375253-34.767637-20.129865-45.740111l-1.826794 118.928973v80.507748c-1.229573 17.061787-9.778032 32.940843-25.621957 47.578615-7.318886 6.089313-11.604826 6.089313-12.810978 0l3.665298-131.739951v-73.188862c-26.839819 36.594431-64.043181 75.648007-111.610086 117.102179-3.665298 2.459146-4.883161 1.826794-3.665298-1.826794 53.667928-65.869975 92.686374-133.566745 117.102178-203.102019v-9.14568h-14.637772c-19.520933 0-36.594431 1.826794-51.232203 5.492092l-12.810979-14.637772 78.680954-1.826794v-23.783452c1.206152-9.742901 1.206152-23.162811 0-40.259729v-14.637773c-7.318886 1.229573-18.303071 3.068077-32.940843 5.492093-14.637772 3.665298-25.621957 6.112734-32.940842 7.318886-1.229573 0-2.459146-1.206152-3.665299-3.665298 0-1.206152 0.597221-1.826794 1.826794-1.826794 67.087838-24.404094 109.174361-43.936737 126.271279-58.57451z m36.594431 45.740111c39.030156 15.867345 57.321516 31.102339 54.897502 45.740111-4.883161 12.213757-12.202047 20.129864-21.956659 23.783452-9.778032 1.229573-15.867345-2.424015-18.30307-10.984184-1.229573-25.621957-7.318886-43.913317-18.303071-54.897501-1.229573-3.641878 0-4.84803 3.665298-3.641878z m162.84229-16.464566l36.594431 27.44875c2.435725 1.229573 2.435725 3.068077 0 5.492092a3403.926125 3403.926125 0 0 1-91.491933 82.334542v1.826794l36.594431-1.826794 18.303071-20.129864 38.421224 27.44875c2.435725 1.229573 2.435725 3.665298 0 7.318886l-12.810978 12.810979 3.665298 182.972154c4.85974 35.364858-10.984184 63.41083-47.578615 84.173046-3.665298 1.206152-6.112734 0.597221-7.318886-1.826794-1.229573-15.867345-5.492092-26.242598-12.810978-31.102339-1.229573 0-1.826794-0.632352-1.826794-1.826794 0-2.459146 0.597221-3.665298 1.826794-3.665298 17.073498 2.424015 24.392384-3.068077 21.956658-16.464567l-1.826794-228.712264-106.129704 3.665298-1.826794 58.551089 80.507748-3.665298c3.665298 1.229573 6.089313 3.068077 7.318886 5.492092 0 1.229573-1.826794 3.068077-5.492092 5.492092l-82.334542 1.826794v62.216388l82.334542-5.492093c4.85974 1.229573 7.318886 3.068077 7.318886 5.492093 0 1.229573-1.826794 3.068077-5.492092 5.492092l-84.173046 3.665298v75.015656c0 18.303071-6.721665 37.800583-20.129865 58.551089-3.665298 3.665298-7.318886 5.492092-10.984184 5.492092-2.459146 0-3.665298-2.459146-3.665298-7.318886l1.826794-91.491932 1.826794-137.232043-1.826794-78.680954 36.59443 25.621957 27.448751-1.826794 1.826794-150.043022 47.578615 10.984185c3.665298 2.459146 3.665298 5.492092 0 9.14568l-5.492092 14.637772-3.665298 100.637612c25.621957-41.454171 42.683744-74.395014 51.232203-98.810818 0.046841-3.688719 1.241283-4.894871 3.700429-3.688718zM3141.991972 404.306982l42.086523 25.621956-5.492092 9.14568v80.507748l217.739791-1.826794 27.44875-31.102339 34.767637 32.940843c2.435725 3.665298 1.826794 6.112734-1.826794 7.318886l-278.117674 3.665299c0 70.764846-10.375253 123.823844-31.102339 159.188701-17.096918 35.388278-56.724295 72.55651-118.928972 111.610086-2.459146 1.206152-4.28594 1.206152-5.492092 0 0-2.459146 0.597221-4.28594 1.826794-5.492092 48.773057-35.364858 79.278175-70.120784 91.491932-104.2912 14.637772-35.364858 21.956658-93.915947 21.956658-175.653268V461.031277c0-31.69956-0.632352-49.405409-1.826794-53.058997-0.01171-3.665298 1.815084-4.871451 5.468672-3.665298z m261.653108 9.14568c1.206152 3.665298 0 6.112734-3.665298 7.318886a4357.020756 4357.020756 0 0 1-204.928813 12.810978l-1.826794-3.665298c80.507748-18.303071 137.232043-37.191652 170.161176-56.724295l40.259729 40.259729z m-45.740111 197.609926l20.129864-25.621957 42.086523 25.621957c1.206152 1.229573 1.826794 3.068077 1.826794 5.492092l-10.984184 14.637772 1.826794 104.291201 3.665298 12.810978c1.206152 3.665298 1.206152 5.492092 0 5.492092 0 1.229573-1.826794 1.826794-5.492092 1.826794-37.824004-3.665298-89.056207-5.492092-153.696609-5.492092h-20.129865v12.810978c-3.665298 18.303071-15.270124 32.940843-34.767637 43.913317-3.665298 0-6.112734-1.826794-7.318886-5.492092L3196.889473 724.511178v-69.535273l-1.826794-60.377883c1.206152-4.85974 3.665298-6.089313 7.318887-3.665299l34.767636 23.783453 120.755767-3.653588z m-120.767477 12.810978v113.448591l122.594271-1.826794v-115.275385l-122.594271 3.653588zM3550.022803 682.424655c20.738796 1.229573 31.71127 13.43162 32.940843 36.594431-1.217863 24.415804-12.202047 37.226783-32.940843 38.421225-23.174521-1.206152-35.376568-13.408199-36.594431-36.594431 1.206152-24.380674 13.408199-37.191652 36.594431-38.421225zM3672.605363 682.424655c20.738796 1.229573 31.69956 13.43162 32.940843 36.594431-1.229573 24.415804-12.202047 37.226783-32.940843 38.421225-23.174521-1.206152-35.376568-13.408199-36.59443-36.594431 1.217863-24.380674 13.41991-37.191652 36.59443-38.421225zM3795.199634 682.424655c20.727086 1.229573 31.69956 13.43162 32.940843 36.594431-1.229573 24.415804-12.213757 37.226783-32.940843 38.421225-23.186231-1.206152-35.376568-13.408199-36.594431-36.594431 1.217863-24.380674 13.408199-37.191652 36.594431-38.421225z" p-id="1884"></path></svg>